<svg id="Capa_1" data-name="Capa 1" xmlns="http://www.w3.org/2000/svg" viewBox="0 0 14.86 8.43">
  <defs>
    <style>
      .cls-1 {
        fill: #bfbfbf;
      }
    </style>
  </defs>
  <title>arrow</title>
  <g id="Symbols">
    <g id="atm-_-forms-_-dropdown-_-normal" data-name="atm-/-forms-/-dropdown-/-normal">
      <g id="Group">
        <g id="Group-2">
          <path id="Line-3" class="cls-1" d="M.87.65A1,1,0,0,1,2.19.57l.09.08L8.71,7.08A1,1,0,0,1,7.38,8.57l-.09-.08L.87,2.07A1,1,0,0,1,.87.65Z" transform="translate(-0.57 -0.36)"/>
          <path id="Line-4" class="cls-1" d="M13.72.65A1,1,0,0,1,15.21,2l-.07.09L8.71,8.49a1,1,0,0,1-1.42,0,1,1,0,0,1-.07-1.32l.07-.09Z" transform="translate(-0.57 -0.36)"/>
        </g>
      </g>
    </g>
  </g>
</svg>
