<svg id="Capa_1" data-name="Capa 1" xmlns="http://www.w3.org/2000/svg" viewBox="0 0 25 25">
  <defs>
    <style>
      .cls-1 {
        fill: #fff;
      }
    </style>
  </defs>
  <title>error</title>
  <g id="Symbols">
    <g id="mol-_-messages-_-alert-_-danger-line" data-name="mol-/-messages-/-alert-/-danger-line">
      <g id="question-copy-3">
        <path id="Shape" class="cls-1" d="M19,23.2a1,1,0,1,0-1-1.67,10.67,10.67,0,1,1,3.3-3.18,1,1,0,0,0,.27,1.36,1,1,0,0,0,1.35-.27A12.49,12.49,0,0,0,12.5,0,12.5,12.5,0,0,0,3.66,21.34,12.51,12.51,0,0,0,19,23.2Z"/>
        <path id="Path" class="cls-1" d="M13.71,12.5l4.17,4.17a.86.86,0,0,1-1.21,1.21L12.5,13.71,8.34,17.88a.86.86,0,0,1-1.21-1.21L11.3,12.5,7.12,8.33a.86.86,0,0,1,0-1.21.88.88,0,0,1,1.21,0L12.5,11.3l4.17-4.17a.86.86,0,0,1,1.21,0,.86.86,0,0,1,0,1.21Z"/>
      </g>
    </g>
  </g>
</svg>
