<?xml version="1.0" encoding="UTF-8"?>
<svg width="24px" height="24px" viewBox="0 0 24 24" version="1.1" xmlns="http://www.w3.org/2000/svg" xmlns:xlink="http://www.w3.org/1999/xlink">
    <!-- Generator: Sketch 62 (91390) - https://sketch.com -->
    <title>user (1)</title>
    <desc>Created with Sketch.</desc>
    <g id="Symbols" stroke="none" stroke-width="1" fill="none" fill-rule="evenodd">
        <g id="Header-/-320" transform="translate(-280.000000, -13.000000)" fill="#333333" fill-rule="nonzero">
            <g id="user-(1)" transform="translate(280.000000, 13.000000)">
                <path d="M23.939169,20.5650937 C23.8336533,20.0582344 23.3372933,19.732875 22.8302457,19.8383906 C22.3233388,19.9439062 21.997979,20.4404063 22.1035417,20.9472656 C22.1643386,21.23925 22.0919166,21.5385 21.9049789,21.7684688 C21.7966975,21.9016406 21.5552441,22.125 21.1550248,22.125 L2.84496998,22.125 C2.44475072,22.125 2.20329728,21.9015937 2.09501589,21.7684688 C1.90803128,21.5385469 1.83565618,21.23925 1.89645314,20.9472656 C2.86939189,16.2740625 6.99135032,12.8603438 11.7514658,12.7452188 C11.8339191,12.7484063 11.9167473,12.75 12,12.75 C12.0835288,12.75 12.1666851,12.7483594 12.2494665,12.7451719 C15.6025333,12.8256094 18.7017248,14.5239375 20.5785553,17.3229844 C20.8668838,17.7530625 21.4492127,17.8679063 21.8793382,17.5795781 C22.3093701,17.29125 22.4242608,16.708875 22.1358855,16.2788438 C20.5975866,13.9845937 18.3638493,12.3163125 15.8169398,11.4780469 C17.3689731,10.3141875 18.3750056,8.45985938 18.3750056,6.375 C18.3750056,2.85984375 15.5152051,0 12,0 C8.48478975,0 5.62498919,2.85984375 5.62498919,6.375 C5.62498919,8.461125 6.63224049,10.3164375 8.18591436,11.4802031 C6.76241253,11.9488594 5.42670768,12.6780938 4.25764368,13.6396875 C2.11395342,15.4029844 0.623467121,17.8624688 0.0608257717,20.5650937 C-0.115518205,21.4119844 0.0957476917,22.2817969 0.640342143,22.9514531 C1.18226472,23.6178281 1.98584388,24 2.84496998,24 L21.1549779,24 C22.0141509,24 22.8177301,23.6178281 23.3596058,22.9514531 C23.904294,22.2817969 24.115513,21.4119844 23.939169,20.5650937 Z M7.4999916,6.375 C7.4999916,3.89367187 9.51866608,1.875 11.9999916,1.875 C14.4813287,1.875 16.5000032,3.89367187 16.5000032,6.375 C16.5000032,8.77992187 14.6036726,10.7502656 12.2277633,10.8693281 C12.1519663,10.867875 12.0760287,10.8671719 11.9999916,10.8671719 C11.9243411,10.8671719 11.8486847,10.8679219 11.7731221,10.8693281 C9.39679092,10.7507812 7.4999916,8.78025 7.4999916,6.375 Z" id="Shape"></path>
            </g>
        </g>
    </g>
</svg>