<?xml version="1.0" encoding="UTF-8"?>
<svg width="22px" height="24px" viewBox="0 0 22 24" version="1.1" xmlns="http://www.w3.org/2000/svg" xmlns:xlink="http://www.w3.org/1999/xlink">
    <!-- Generator: Sketch 63.1 (92452) - https://sketch.com -->
    <title>atm / images / icon/Web-App/M/Notification</title>
    <desc>Created with Sketch.</desc>
    <defs>
        <path d="M7.10492696,22.89656 L24.8954656,22.89656 L24.6310249,21.3339099 C24.5904625,21.0928655 24.3817624,20.9180263 24.1348551,20.9180263 L23.0318195,20.9180263 L21.5141314,11.9796831 C21.119106,9.64739881 19.2770495,7.82005966 16.9296641,7.42874032 C16.6191654,7.37698476 16.3036946,7.3507129 15.9917567,7.3507129 C13.2524861,7.3507129 10.9351953,9.29588134 10.4818123,11.9757423 L8.9689656,20.918289 L7.86579912,20.918289 C7.61889185,20.918289 7.41019175,21.0932596 7.36936765,21.3341726 L7.10492696,22.89656 Z M14.5790075,24.6827837 L14.6094947,24.9543034 C14.6899653,25.6727074 15.2878027,26.2145645 16,26.2145645 C16.7123281,26.2145645 17.3101656,25.6728387 17.3905053,24.9544347 L17.4208617,24.6827837 L14.5790075,24.6827837 Z M16,28 C14.3538207,28 12.9642313,26.7015134 12.8362635,25.0437591 L12.8083932,24.6827837 L5,24.6827837 L5.61694105,21.0349361 C5.78076081,20.0683944 6.52789409,19.3342273 7.46200695,19.1679264 L8.72938574,11.6765058 C9.27658562,8.44033825 11.8693082,6.00703867 15.1110292,5.62333817 L15.1110292,4 L16.8885783,4 L16.8885783,5.6209737 C17.0043774,5.63410963 17.1138959,5.64934731 17.2206666,5.66721217 C20.1815911,6.16072904 22.5338179,8.39357434 23.1876576,11.282822 L23.1989104,11.282822 L23.2710068,11.6765058 L24.5383856,19.1679264 C25.4724985,19.3342273 26.2196317,20.0685258 26.383059,21.0349361 L27,24.6827837 L19.1916068,24.6827837 L19.1637365,25.0437591 C19.0357687,26.7015134 17.6460484,28 16,28 L16,28 Z" id="path-1"></path>
    </defs>
    <g id="Welcome" stroke="none" stroke-width="1" fill="none" fill-rule="evenodd">
        <g id="Caja-Recaudación---Login-Copy-2" transform="translate(-85.000000, -436.000000)">
            <g id="atm-/-images-/-icon/Web-App/M/Notification" transform="translate(80.000000, 432.000000)">
                <mask id="mask-2" fill="white">
                    <use xlink:href="#path-1"></use>
                </mask>
                <use id="Fill-1" fill="#333333" fill-rule="evenodd" xlink:href="#path-1"></use>
                <g id="atm/x_assets/color/black" mask="url(#mask-2)" fill="#333333" fill-rule="evenodd">
                    <rect id="Rectangle" x="0" y="0" width="32" height="32"></rect>
                </g>
            </g>
        </g>
    </g>
</svg>