<svg id="Capa_1" data-name="Capa 1" xmlns="http://www.w3.org/2000/svg" viewBox="0 0 25 25">
  <defs>
    <style>
      .cls-1 {
        fill: #fff;
      }
    </style>
  </defs>
  <title>ok</title>
  <g id="Welcome">
    <g id="Desktop-HD">
      <g id="question-copy-6">
        <path id="Shape" class="cls-1" d="M19,23.2a1,1,0,1,0-1-1.67,10.67,10.67,0,1,1,3.3-3.18,1,1,0,0,0,.27,1.36,1,1,0,0,0,1.35-.27A12.49,12.49,0,0,0,12.5,0,12.5,12.5,0,0,0,3.66,21.34,12.51,12.51,0,0,0,19,23.2Z"/>
        <g id="checked">
          <path id="Path" class="cls-1" d="M11.07,18.6a1.06,1.06,0,0,1-.75-.32L6.56,14.44a1.11,1.11,0,0,1,0-1.53,1,1,0,0,1,1.51,0l3,3.07,6.77-6.91a1,1,0,0,1,1.51,0,1.11,1.11,0,0,1,0,1.53l-7.52,7.68A1.07,1.07,0,0,1,11.07,18.6Z"/>
        </g>
      </g>
    </g>
  </g>
</svg>
