<svg id="Capa_1" data-name="Capa 1" xmlns="http://www.w3.org/2000/svg" viewBox="0 0 25 22.5">
  <defs>
    <style>
      .cls-1 {
        fill: #fff;
      }
    </style>
  </defs>
  <title>process</title>
  <g id="Symbols">
    <g id="mol-_-messages-_-alert-_-warning-line" data-name="mol-/-messages-/-alert-/-warning-line">
      <g id="warning-copy">
        <path id="Path" class="cls-1" d="M24.72,16.78a1,1,0,0,0-1.27-.56,1,1,0,0,0-.55,1.31,2.21,2.21,0,0,1-.22,2,2.05,2.05,0,0,1-1.73.94H4.06a2,2,0,0,1-1.83-1.11,2.21,2.21,0,0,1,0-2.2L10.72,3.05a2.05,2.05,0,0,1,3.56,0L20.53,13.5a1,1,0,0,0,1.34.32,1,1,0,0,0,.32-1.38L16,2A4,4,0,0,0,9.06,2L.61,16.11a4.28,4.28,0,0,0-.09,4.24A4,4,0,0,0,4.06,22.5H21a4,4,0,0,0,3.35-1.83A4.33,4.33,0,0,0,24.72,16.78Z" transform="translate(0)"/>
        <path id="Path-2" data-name="Path" class="cls-1" d="M12.5,18.12a1.25,1.25,0,1,0,0-2.5h0a1.25,1.25,0,1,0,0,2.5Z" transform="translate(0)"/>
        <path id="Path-3" data-name="Path" class="cls-1" d="M13.75,13.37V6A1.15,1.15,0,0,0,12.5,5a1.15,1.15,0,0,0-1.25,1v7.37a1.15,1.15,0,0,0,1.25,1A1.15,1.15,0,0,0,13.75,13.37Z" transform="translate(0)"/>
      </g>
    </g>
  </g>
</svg>
