<?xml version="1.0" encoding="utf-8"?>
<!-- Generator: Adobe Illustrator 22.1.0, SVG Export Plug-In . SVG Version: 6.00 Build 0)  -->
<svg version="1.1" id="Capa_1" xmlns="http://www.w3.org/2000/svg" xmlns:xlink="http://www.w3.org/1999/xlink" x="0px" y="0px"
	 viewBox="0 0 64 64" style="enable-background:new 0 0 64 64;" xml:space="preserve">
<style type="text/css">
	.st0{fill:#008A00;}
</style>
<title>Icon</title>
<g id="Symbols">
	<g id="atm-_x2F_-images-_x2F_-icon_x2F_alert_x2F_L_x2F_succes">
		<g id="Icon">
			<path id="path-1_1_" class="st0" d="M32,0c17.6,0,32,14.4,32,32c0,6.7-2,13.1-5.9,18.5c-0.6,0.9-1.8,1.1-2.7,0.4
				c-0.9-0.6-1.1-1.8-0.4-2.7c3.4-4.8,5.2-10.4,5.2-16.3C60.2,16.5,47.5,3.8,32,3.8S3.8,16.5,3.8,32S16.5,60.2,32,60.2
				c4.7,0,9.3-1.2,13.4-3.4c0.9-0.5,2.1-0.1,2.6,0.8c0.5,0.9,0.2,2.1-0.8,2.6C42.5,62.7,37.3,64,32,64C14.4,64,0,49.6,0,32
				S14.4,0,32,0z M44.7,19.6c0.7-0.9,2-1,2.9-0.2c0.7,0.6,0.9,1.5,0.6,2.3L48,22l-0.2,0.3l-19,22.2c-0.6,0.7-1.6,0.9-2.4,0.5
				l-0.3-0.2l-0.3-0.2L16.3,35c-0.8-0.8-0.8-2.1,0-2.9c0.6-0.6,1.6-0.8,2.4-0.4l0.3,0.2l0.3,0.2l7.9,7.9L44.7,19.6z"/>
		</g>
	</g>
</g>
</svg>
