<?xml version="1.0" encoding="utf-8"?>
<!-- Generator: Adobe Illustrator 22.1.0, SVG Export Plug-In . SVG Version: 6.00 Build 0)  -->
<svg version="1.1" id="Capa_1" xmlns="http://www.w3.org/2000/svg" xmlns:xlink="http://www.w3.org/1999/xlink" x="0px" y="0px"
	 viewBox="0 0 64 60" style="enable-background:new 0 0 64 60;" xml:space="preserve">
<style type="text/css">
	.st0{fill:#EFAE30;}
</style>
<title>Icon</title>
<g id="Symbols">
	<g id="atm-_x2F_-images-_x2F_-icon_x2F_alert_x2F_L_x2F_warning" transform="translate(0.000000, -2.000000)">
		<g id="Icon">
			<path id="path-1_1_" class="st0" d="M28.5,5.1c1.4-2.6,4.2-2.9,5.9-0.8l0.3,0.4L34.9,5l16.9,30.8c0.5,0.9,0.2,2.1-0.8,2.6
				c-0.7,0.4-1.6,0.3-2.2-0.3L48.7,38l-0.2-0.3L31.7,7.2l-27,50.1l54.5,0l-3.7-6.7c-0.4-0.7-0.3-1.6,0.3-2.2l0.2-0.2l0.3-0.2
				c0.7-0.4,1.6-0.3,2.2,0.3l0.2,0.2l0.2,0.3l3.7,6.8c1.4,2.6,0.2,5.2-2.5,5.6l-0.4,0l-0.4,0H4.7c-2.9,0-4.6-2.3-3.7-4.9l0.1-0.4
				l0.2-0.4L28.5,5.1z M31.7,47.4c1.2,0,2.3,1,2.3,2.3c0,1.2-1,2.3-2.3,2.3c-1.2,0-2.3-1-2.3-2.3C29.4,48.4,30.4,47.4,31.7,47.4z
				 M31.7,21.9c0.9,0,1.7,0.6,2,1.4l0.1,0.3l0,0.3v19.2c0,1.2-0.9,2.1-2.1,2.1c-0.9,0-1.7-0.6-2-1.4l-0.1-0.3l0-0.3V24
				C29.6,22.8,30.6,21.9,31.7,21.9z"/>
		</g>
	</g>
</g>
</svg>
